<svg xmlns="http://www.w3.org/2000/svg" xmlns:xlink="http://www.w3.org/1999/xlink" width="24" height="25" viewBox="0 0 24 25" fill="none"><path id="路径" fill-rule="evenodd" style="fill:#768ADC" transform="translate(0 0)  rotate(0 12 12.04458977407848)" opacity="0.6" d="M21.41,13.69L3.33,13.69L9.46,7.57C9.9,7.12 9.9,6.4 9.46,5.95C9.01,5.5 8.29,5.5 7.84,5.95L0.72,13.07C0.26,13.54 0,14.16 0,14.82C0,15.48 0.26,16.1 0.72,16.57L7.91,23.75C8.13,23.98 8.42,24.09 8.71,24.09C9.01,24.09 9.3,23.98 9.52,23.75C9.97,23.31 9.97,22.58 9.52,22.14L3.36,15.98L21.42,15.98C22.84,15.98 24,14.82 24,13.39L24,2.58C24,1.16 22.84,0 21.42,0L14.82,0C14.19,0 13.68,0.51 13.68,1.14C13.68,1.77 14.19,2.28 14.82,2.28L21.41,2.28C21.58,2.28 21.71,2.42 21.71,2.58L21.71,13.39C21.71,13.39 21.58,13.69 21.41,13.69Z " /></svg>